<svg width="49" height="49" viewBox="0 0 49 49" fill="none" xmlns="http://www.w3.org/2000/svg">
<g clip-path="url(#clip0_2263_3884)">
<path d="M48.2039 30.2432C44.9868 43.1478 31.9166 51.0012 19.0106 47.7832C6.10993 44.5661 -1.7435 31.4951 1.47507 18.5916C4.69081 5.68567 17.761 -2.16835 30.663 1.0488C43.5681 4.26595 51.4211 17.3384 48.2036 30.2435L48.2038 30.2432H48.2039Z" fill="#F7931A"/>
<path d="M35.5022 20.9432C35.9816 17.7376 33.5411 16.0144 30.2038 14.8649L31.2865 10.5227L28.6432 9.86402L27.5893 14.092C26.8944 13.9187 26.1807 13.7554 25.4715 13.5935L26.533 9.3376L23.8914 8.67896L22.8082 13.0198C22.2331 12.8889 21.6683 12.7595 21.1204 12.6232L21.1234 12.6095L17.4783 11.6992L16.7751 14.5224C16.7751 14.5224 18.7362 14.972 18.6949 14.9996C19.7653 15.2668 19.9588 15.9754 19.9267 16.537L18.6935 21.4839C18.7672 21.5026 18.8628 21.5297 18.9683 21.572C18.8801 21.5501 18.7863 21.5262 18.6889 21.5029L16.9603 28.4328C16.8295 28.758 16.4975 29.246 15.7491 29.0607C15.7756 29.0991 13.828 28.5813 13.828 28.5813L12.5156 31.607L15.9554 32.4645C16.5953 32.625 17.2224 32.7929 17.84 32.9508L16.7462 37.3428L19.3864 38.0015L20.4696 33.656C21.1909 33.8518 21.8909 34.0324 22.5761 34.2027L21.4965 38.5277L24.1399 39.1863L25.2336 34.8025C29.741 35.6555 33.1302 35.3116 34.5567 31.2347C35.7062 27.9523 34.4995 26.059 32.1282 24.8244C33.8553 24.4261 35.1562 23.2901 35.5031 20.9435L35.5023 20.943L35.5022 20.9432ZM29.4629 29.4118C28.646 32.6942 23.1195 30.9198 21.3277 30.4749L22.7792 24.6562C24.5709 25.1034 30.3166 25.9886 29.463 29.4118H29.4629ZM30.2804 20.8956C29.5352 23.8813 24.9354 22.3644 23.4433 21.9925L24.7593 16.7152C26.2514 17.0872 31.0566 17.7814 30.2806 20.8956H30.2804Z" fill="white"/>
</g>
<defs>
<clipPath id="clip0_2263_3884">
<rect width="48.1764" height="48.1764" fill="white" transform="translate(0.777344 0.292908)"/>
</clipPath>
</defs>
</svg>
