<svg width="48" height="49" viewBox="0 0 48 49" fill="none" xmlns="http://www.w3.org/2000/svg">
<path d="M11.9806 10.122C11.5828 10.1221 11.194 10.2408 10.864 10.4631C10.5339 10.6853 10.2777 11.0009 10.128 11.3695C9.97826 11.7381 9.94188 12.143 10.0235 12.5324C10.1051 12.9218 10.301 13.2781 10.5861 13.5556L21.172 24.1415L10.5861 34.7274C10.3942 34.9117 10.2409 35.1325 10.1353 35.3767C10.0298 35.621 9.974 35.8838 9.97129 36.1499C9.96859 36.416 10.019 36.6799 10.1196 36.9263C10.2202 37.1727 10.3689 37.3965 10.557 37.5846C10.7452 37.7728 10.969 37.9215 11.2154 38.0221C11.4617 38.1227 11.7257 38.1731 11.9917 38.1704C12.2578 38.1677 12.5207 38.1119 12.7649 38.0063C13.0092 37.9008 13.2299 37.7475 13.4142 37.5556L24.0002 26.9696L34.5861 37.5556C34.7704 37.7475 34.9911 37.9008 35.2354 38.0063C35.4796 38.1119 35.7425 38.1677 36.0086 38.1704C36.2747 38.1731 36.5386 38.1227 36.785 38.0221C37.0313 37.9215 37.2552 37.7728 37.4433 37.5846C37.6315 37.3965 37.7802 37.1727 37.8808 36.9263C37.9813 36.68 38.0318 36.416 38.0291 36.1499C38.0263 35.8838 37.9706 35.621 37.865 35.3767C37.7594 35.1325 37.6062 34.9117 37.4142 34.7274L26.8283 24.1415L37.4142 13.5556C37.7032 13.2746 37.9006 12.913 37.9805 12.5179C38.0605 12.1229 38.0192 11.7129 37.8621 11.3417C37.705 10.9706 37.4395 10.6555 37.1003 10.4378C36.761 10.2202 36.364 10.1101 35.9611 10.122C35.4415 10.1374 34.9483 10.3546 34.5861 10.7274L24.0002 21.3134L13.4142 10.7274C13.2279 10.5358 13.005 10.3836 12.7587 10.2796C12.5125 10.1756 12.2479 10.122 11.9806 10.122Z" fill="black"/>
</svg>
