<svg width="219" height="199" viewBox="0 0 219 199" fill="none" xmlns="http://www.w3.org/2000/svg">
<path d="M67.7211 135.559C105.114 135.559 135.427 105.246 135.427 67.8535C135.427 30.4607 105.114 0.147949 67.7211 0.147949C30.3284 0.147949 0.015625 30.4607 0.015625 67.8535C0.015625 105.246 30.3284 135.559 67.7211 135.559Z" fill="#E4F614"/>
<path d="M199.374 108.102V88.8855C199.374 83.7873 197.021 78.689 192.707 75.9438L124.861 37.511L57.0156 75.9438C52.7017 79.0812 50.3486 83.7873 50.3486 88.8855V108.102L124.861 159.084L199.374 108.102Z" fill="#110041"/>
<path d="M81.7246 25.7456H168.002V155.162H81.7246V25.7456Z" fill="#F9FDCE"/>
<path d="M168.002 151.241V25.7456H81.7246V151.241H168.002ZM160.159 143.397H89.5681V33.589H160.159V143.397Z" fill="#E4F614"/>
<path d="M124.863 49.2761C122.783 49.2761 120.788 50.1024 119.317 51.5734C117.846 53.0443 117.019 55.0393 117.019 57.1195C117.019 59.1997 117.846 61.1947 119.317 62.6657C120.788 64.1366 122.783 64.963 124.863 64.963C126.943 64.963 128.938 64.1366 130.409 62.6657C131.88 61.1947 132.706 59.1997 132.706 57.1195C132.706 55.0393 131.88 53.0443 130.409 51.5734C128.938 50.1024 126.943 49.2761 124.863 49.2761ZM85.6455 29.6675V46.2211C87.7319 48.0996 90.4614 49.2761 93.489 49.2761C99.9872 49.2761 105.254 44.0092 105.254 37.5109C105.254 34.4834 104.078 31.7538 102.199 29.6675H85.6455ZM164.08 29.6675H147.526C145.648 31.7538 144.471 34.4834 144.471 37.5109C144.471 44.0092 149.738 49.2761 156.236 49.2761C159.264 49.2761 161.994 48.0996 164.08 46.2211V29.6675ZM124.863 80.6499C118.622 80.6499 112.637 83.1289 108.224 87.5417C103.811 91.9545 101.332 97.9396 101.332 104.18C101.332 110.421 103.811 116.406 108.224 120.819C112.637 125.231 118.622 127.711 124.863 127.711C131.103 127.711 137.088 125.231 141.501 120.819C145.914 116.406 148.393 110.421 148.393 104.18C148.393 97.9396 145.914 91.9545 141.501 87.5417C137.088 83.1289 131.103 80.6499 124.863 80.6499Z" fill="#A8B607"/>
<path d="M160.159 101.497L124.863 123.788L89.5676 101.497V163.005H160.159V101.497Z" fill="#E4F614"/>
<path d="M124.864 127.71C136.103 127.71 145.488 119.824 147.821 109.29L124.864 123.789L101.906 109.29C104.239 119.824 113.624 127.71 124.864 127.71ZM160.159 101.498V163.006H168.002V96.5444L160.159 101.498ZM81.7246 96.5444V163.006H89.5681V101.498L81.7246 96.5444Z" fill="#A8B607"/>
<path d="M183.687 178.693H66.0355C57.4077 178.693 50.3486 171.634 50.3486 163.006V92.4149L124.861 139.476L199.374 92.4149V163.006C199.374 171.634 192.315 178.693 183.687 178.693Z" fill="#D3FEEF"/>
</svg>
