<svg width="34" height="33" viewBox="0 0 34 33" fill="none" xmlns="http://www.w3.org/2000/svg">
<path d="M6.07675 5.78906C4.58174 5.78906 3.37085 6.99995 3.37085 8.49496C3.37085 9.24179 3.97697 9.84791 4.7238 9.84791H29.0769C29.8237 9.84791 30.4298 9.24179 30.4298 8.49496C30.4298 6.99995 29.2189 5.78906 27.7239 5.78906H6.07675ZM4.7238 13.9068C3.97697 13.9068 3.37085 14.5129 3.37085 15.2597V24.7303C3.37085 26.2254 4.58174 27.4362 6.07675 27.4362H27.7239C29.2189 27.4362 30.4298 26.2254 30.4298 24.7303V15.2597C30.4298 14.5129 29.8237 13.9068 29.0769 13.9068H4.7238Z" fill="#5E6E89"/>
</svg>
