<svg width="49" height="49" viewBox="0 0 49 49" fill="none" xmlns="http://www.w3.org/2000/svg">
<g clip-path="url(#clip0_2263_3873)">
<path d="M24.6299 48.7071C37.9335 48.7071 48.7181 37.9225 48.7181 24.6189C48.7181 11.3154 37.9335 0.530762 24.6299 0.530762C11.3264 0.530762 0.541748 11.3154 0.541748 24.6189C0.541748 37.9225 11.3264 48.7071 24.6299 48.7071Z" fill="#627EEA"/>
<path d="M24.7771 8.96136V20.5344L34.5587 24.9052L24.7771 8.96136Z" fill="white" fill-opacity="0.602"/>
<path d="M24.778 8.96155L14.9951 24.9054L24.778 20.5345V8.96155Z" fill="white"/>
<path d="M24.7771 32.4056V40.2692L34.5652 26.7274L24.7771 32.4056Z" fill="white" fill-opacity="0.602"/>
<path d="M24.7773 40.2692V32.4043L14.9944 26.7274L24.7773 40.2692Z" fill="white"/>
<path d="M24.7771 30.5849L34.5587 24.9054L24.7771 20.5372V30.5849Z" fill="white" fill-opacity="0.2"/>
<path d="M14.9944 24.9054L24.7773 30.5849V20.5372L14.9944 24.9054Z" fill="white" fill-opacity="0.602"/>
</g>
<defs>
<clipPath id="clip0_2263_3873">
<rect width="48.1764" height="48.1764" fill="white" transform="translate(0.541748 0.530762)"/>
</clipPath>
</defs>
</svg>
