<svg width="19" height="19" viewBox="0 0 19 19" fill="none" xmlns="http://www.w3.org/2000/svg">
<g clip-path="url(#clip0_307_210)">
<path d="M7.59816 1.93994C4.02777 1.93994 1.11816 4.84955 1.11816 8.41994C1.11816 11.9903 4.02777 14.8999 7.59816 14.8999C8.902 14.8999 10.1154 14.509 11.1335 13.8424L15.6546 18.3635L17.1818 16.8363L12.719 12.3736C13.5675 11.2778 14.0782 9.90844 14.0782 8.41994C14.0782 4.84955 11.1686 1.93994 7.59816 1.93994ZM7.59816 3.37994C10.3904 3.37994 12.6382 5.62769 12.6382 8.41994C12.6382 11.2122 10.3904 13.4599 7.59816 13.4599C4.80592 13.4599 2.55816 11.2122 2.55816 8.41994C2.55816 5.62769 4.80592 3.37994 7.59816 3.37994Z" fill="#909090"/>
</g>
<defs>
<clipPath id="clip0_307_210">
<rect width="18" height="18" fill="white" transform="translate(0.0380859 0.5)"/>
</clipPath>
</defs>
</svg>
