<svg width="23" height="22" viewBox="0 0 23 22" fill="none" xmlns="http://www.w3.org/2000/svg">
<path d="M11.6646 2.13541C6.6939 2.13541 2.64497 6.18433 2.64497 11.1551C2.64497 16.1258 6.6939 20.1747 11.6646 20.1747C16.6354 20.1747 20.6843 16.1258 20.6843 11.1551C20.6843 6.18433 16.6354 2.13541 11.6646 2.13541ZM11.6646 3.93934C15.6605 3.93934 18.8804 7.15925 18.8804 11.1551C18.8804 15.1509 15.6605 18.3708 11.6646 18.3708C7.66881 18.3708 4.44891 15.1509 4.44891 11.1551C4.44891 7.15925 7.66881 3.93934 11.6646 3.93934ZM10.7627 6.64524V8.44917H12.5666V6.64524H10.7627ZM10.7627 10.2531V15.6649H12.5666V10.2531H10.7627Z" fill="#657795"/>
</svg>
