<svg width="192" height="48" viewBox="0 0 192 48" fill="none" xmlns="http://www.w3.org/2000/svg">
<path d="M21.0146 4.89526L16.3578 7.99978L36.1193 13.4327L40.8357 10.2685L21.0146 4.89526ZM15.1637 9.67145C15.3055 25.9179 3.82031 35.4628 3.82031 35.4628L23.8206 42.7465C26.1788 40.448 35.067 30.7986 35.3431 15.1641L15.1637 9.67145ZM42.0298 11.761L37.2536 14.985C37.0969 28.2015 31.1938 37.1942 27.4624 41.6122L42.0298 33.5524V11.761Z" fill="#110041"/>
<path d="M55.3874 22.804C55.3874 19.9027 56.1127 17.652 57.5634 16.052C59.0354 14.452 61.062 13.652 63.6434 13.652C66.2247 13.652 68.2407 14.452 69.6914 16.052C71.1634 17.652 71.8994 19.9027 71.8994 22.804V27.796C71.8994 30.7827 71.1634 33.0547 69.6914 34.612C68.2407 36.1693 66.2247 36.948 63.6434 36.948C61.062 36.948 59.0354 36.1693 57.5634 34.612C56.1127 33.0547 55.3874 30.7827 55.3874 27.796V22.804ZM63.6434 33.108C64.4114 33.108 65.0514 32.9907 65.5634 32.756C66.0754 32.5 66.4914 32.148 66.8114 31.7C67.1314 31.252 67.3554 30.7187 67.4834 30.1C67.6114 29.4813 67.6754 28.7987 67.6754 28.052V22.548C67.6754 21.844 67.6007 21.1827 67.4514 20.564C67.302 19.9453 67.0674 19.412 66.7474 18.964C66.4274 18.516 66.0114 18.164 65.4994 17.908C64.9874 17.6307 64.3687 17.492 63.6434 17.492C62.918 17.492 62.2994 17.6307 61.7874 17.908C61.2754 18.164 60.8594 18.516 60.5394 18.964C60.2194 19.412 59.9847 19.9453 59.8354 20.564C59.686 21.1827 59.6114 21.844 59.6114 22.548V28.052C59.6114 28.7987 59.6754 29.4813 59.8034 30.1C59.9314 30.7187 60.1554 31.252 60.4754 31.7C60.7954 32.148 61.2114 32.5 61.7234 32.756C62.2354 32.9907 62.8754 33.108 63.6434 33.108ZM79.9731 36.5H75.9411V20.628H79.9731V22.996H80.5491C80.9118 22.1 81.4985 21.4067 82.3091 20.916C83.1198 20.4253 84.0691 20.18 85.1571 20.18C85.9251 20.18 86.6398 20.308 87.3011 20.564C87.9838 20.7987 88.5811 21.172 89.0931 21.684C89.6051 22.196 89.9998 22.8467 90.2771 23.636C90.5758 24.4253 90.7251 25.364 90.7251 26.452V36.5H86.6931V27.476C86.6931 26.3453 86.4158 25.46 85.8611 24.82C85.3278 24.1587 84.5491 23.828 83.5251 23.828C82.3305 23.828 81.4345 24.2333 80.8371 25.044C80.2611 25.8333 79.9731 26.9 79.9731 28.244V36.5ZM97.8389 25.876H107.823V29.524H97.8389V25.876ZM130.009 36.5H125.785V29.78C125.785 29.268 125.646 28.852 125.369 28.532C125.113 28.212 124.675 28.052 124.057 28.052H119.193V36.5H114.969V14.1H123.545C124.697 14.1 125.71 14.26 126.585 14.58C127.459 14.9 128.185 15.348 128.761 15.924C129.358 16.4787 129.806 17.1293 130.105 17.876C130.425 18.6227 130.585 19.4227 130.585 20.276V21.044C130.585 21.9613 130.339 22.8253 129.849 23.636C129.358 24.4253 128.601 25.0333 127.577 25.46V26.036C128.323 26.1213 128.91 26.4093 129.337 26.9C129.785 27.3907 130.009 28.0093 130.009 28.756V36.5ZM119.193 24.02H123.225C124.249 24.02 125.027 23.7853 125.561 23.316C126.094 22.8253 126.361 22.1427 126.361 21.268V20.884C126.361 20.1373 126.094 19.4973 125.561 18.964C125.027 18.4093 124.249 18.132 123.225 18.132H119.193V24.02ZM144.994 34.196C144.568 35.1987 143.97 35.9133 143.202 36.34C142.434 36.7453 141.538 36.948 140.514 36.948C139.554 36.948 138.648 36.7667 137.794 36.404C136.962 36.0413 136.226 35.508 135.586 34.804C134.946 34.1 134.434 33.2467 134.05 32.244C133.688 31.2413 133.506 30.1 133.506 28.82V28.308C133.506 27.0493 133.688 25.9187 134.05 24.916C134.413 23.9133 134.904 23.06 135.522 22.356C136.141 21.652 136.856 21.1187 137.666 20.756C138.498 20.372 139.384 20.18 140.322 20.18C141.453 20.18 142.36 20.372 143.042 20.756C143.746 21.14 144.301 21.7373 144.706 22.548H145.282V20.628H149.314V31.7C149.314 32.34 149.602 32.66 150.178 32.66H150.786V36.5H148.034C147.309 36.5 146.712 36.2867 146.242 35.86C145.794 35.4333 145.57 34.8787 145.57 34.196H144.994ZM141.41 33.108C142.584 33.108 143.522 32.724 144.226 31.956C144.93 31.1667 145.282 30.1 145.282 28.756V28.372C145.282 27.028 144.93 25.972 144.226 25.204C143.522 24.4147 142.584 24.02 141.41 24.02C140.237 24.02 139.298 24.4147 138.594 25.204C137.89 25.972 137.538 27.028 137.538 28.372V28.756C137.538 30.1 137.89 31.1667 138.594 31.956C139.298 32.724 140.237 33.108 141.41 33.108ZM170.252 36.5H166.22V25.364C166.22 24.916 166.103 24.5853 165.868 24.372C165.655 24.1373 165.367 24.02 165.004 24.02C164.577 24.02 164.236 24.148 163.98 24.404C163.745 24.66 163.628 25.044 163.628 25.556V36.5H159.596V25.364C159.596 24.916 159.468 24.5853 159.212 24.372C158.977 24.1373 158.689 24.02 158.348 24.02C157.964 24.02 157.644 24.148 157.388 24.404C157.132 24.66 157.004 25.044 157.004 25.556V36.5H152.972V20.628H157.004V22.164H157.58C157.708 21.588 157.996 21.1187 158.444 20.756C158.913 20.372 159.521 20.18 160.268 20.18C160.972 20.18 161.569 20.372 162.06 20.756C162.551 21.1187 162.881 21.588 163.052 22.164H163.628C163.799 21.588 164.151 21.1187 164.684 20.756C165.239 20.372 165.921 20.18 166.732 20.18C167.799 20.18 168.652 20.5427 169.292 21.268C169.932 21.972 170.252 22.9533 170.252 24.212V36.5ZM177.11 42.9H173.078V20.628H177.11V22.932H177.686C178.113 22.0573 178.731 21.3853 179.542 20.916C180.353 20.4253 181.387 20.18 182.646 20.18C183.585 20.18 184.47 20.3613 185.302 20.724C186.155 21.0867 186.891 21.62 187.51 22.324C188.15 23.0067 188.651 23.8493 189.014 24.852C189.398 25.8547 189.59 26.996 189.59 28.276V28.852C189.59 30.1533 189.409 31.3053 189.046 32.308C188.683 33.3107 188.193 34.164 187.574 34.868C186.955 35.5507 186.219 36.0733 185.366 36.436C184.534 36.7773 183.627 36.948 182.646 36.948C181.921 36.948 181.291 36.8733 180.758 36.724C180.225 36.5747 179.755 36.372 179.35 36.116C178.966 35.86 178.635 35.572 178.358 35.252C178.102 34.9107 177.878 34.5587 177.686 34.196H177.11V42.9ZM181.334 33.108C182.593 33.108 183.606 32.724 184.374 31.956C185.163 31.1667 185.558 30.1 185.558 28.756V28.372C185.558 27.028 185.163 25.972 184.374 25.204C183.606 24.4147 182.593 24.02 181.334 24.02C180.075 24.02 179.051 24.4253 178.262 25.236C177.494 26.0253 177.11 27.0707 177.11 28.372V28.756C177.11 30.0573 177.494 31.1133 178.262 31.924C179.051 32.7133 180.075 33.108 181.334 33.108Z" fill="#110041"/>
</svg>
