<svg width="44" height="44" viewBox="0 0 44 44" fill="none" xmlns="http://www.w3.org/2000/svg">
<path d="M28.9791 9.13892C27.3208 9.13892 25.6788 9.46554 24.1467 10.1001C22.6147 10.7347 21.2227 11.6649 20.0501 12.8374C18.8775 14.01 17.9474 15.4021 17.3128 16.9341C16.6782 18.4661 16.3516 20.1082 16.3516 21.7664C16.3516 23.4247 16.6782 25.0667 17.3128 26.5988C17.9474 28.1308 18.8775 29.5229 20.0501 30.6954C21.2227 31.868 22.6147 32.7982 24.1467 33.4327C25.6788 34.0673 27.3208 34.394 28.9791 34.394C30.6374 34.394 32.2794 34.0673 33.8114 33.4327C35.3435 32.7982 36.7355 31.868 37.9081 30.6954C39.0807 29.5229 40.0108 28.1308 40.6454 26.5988C41.28 25.0667 41.6066 23.4247 41.6066 21.7664C41.6066 20.1082 41.28 18.4661 40.6454 16.9341C40.0108 15.4021 39.0807 14.01 37.9081 12.8374C36.7355 11.6649 35.3435 10.7347 33.8114 10.1001C32.2794 9.46554 30.6374 9.13892 28.9791 9.13892Z" fill="#FF9800"/>
<path d="M14.5494 9.13892C12.8911 9.13892 11.2491 9.46554 9.71705 10.1001C8.18501 10.7347 6.79296 11.6649 5.62039 12.8374C4.44782 14.01 3.51768 15.4021 2.88309 16.9341C2.2485 18.4661 1.92188 20.1082 1.92188 21.7664C1.92188 23.4247 2.2485 25.0667 2.88309 26.5988C3.51768 28.1308 4.44782 29.5229 5.62039 30.6954C6.79296 31.868 8.18501 32.7982 9.71705 33.4327C11.2491 34.0673 12.8911 34.394 14.5494 34.394C16.2077 34.394 17.8497 34.0673 19.3817 33.4327C20.9138 32.7982 22.3058 31.868 23.4784 30.6954C24.651 29.5229 25.5811 28.1308 26.2157 26.5988C26.8503 25.0667 27.1769 23.4247 27.1769 21.7664C27.1769 20.1082 26.8503 18.4661 26.2157 16.9341C25.5811 15.4021 24.651 14.01 23.4784 12.8374C22.3058 11.6649 20.9138 10.7347 19.3817 10.1001C17.8497 9.46554 16.2077 9.13892 14.5494 9.13892Z" fill="#D50000"/>
<path d="M16.3516 21.7664C16.3516 26.0553 18.4946 29.839 21.7634 32.121C25.0321 29.839 27.1752 26.0553 27.1752 21.7664C27.1752 17.4776 25.0321 13.6938 21.7634 11.4119C18.4946 13.6938 16.3516 17.4776 16.3516 21.7664Z" fill="#FF3D00"/>
</svg>
