<svg width="52" height="52" viewBox="0 0 52 52" fill="none" xmlns="http://www.w3.org/2000/svg">
<rect x="0.5" y="0.5" width="51" height="51" rx="4" fill="#FFDEC1"/>
<g clip-path="url(#clip0_1139_2654)">
<path d="M40.2755 36.1887L38.3225 36.6506L37.9195 36.9482L20.6913 34.7038H10.5L14.1394 25.9804L20.0558 26.0129L21.488 28.5332L26.2139 33.2855L25.6017 30.325L29.8177 31.052L37.918 36.9482L31.5165 31.052L30.4656 28.2356L26.7688 19.5122C26.7688 19.5122 23.9261 14.639 23.8688 14.5832C23.9494 14.5941 30.4656 14.5615 30.4656 14.5615L31.656 19.2487L34.2786 28.2356L34.9947 30.666L37.5367 33.5165L35.469 30.4583L36.8206 29.9081L37.4685 32.6795L37.5258 33.5165L40.2755 36.1887Z" fill="#F58C25"/>
<path d="M20.0599 26.0118L14.1435 25.9793L12.7346 24.5378L13.6243 23.9643L12.0293 23.1412L13.3933 22.7878L11.5209 21.6672L12.6416 21.2037L12.9206 19.5328L16.0268 14.0102L20.2335 10.501L23.8605 14.5821L26.7729 19.4987L20.0599 26.0118Z" fill="#81491F"/>
<path d="M10.4998 34.7031H20.7019L23.4873 38.2449C23.4873 38.2449 16.5541 40.2366 13.0759 41.2488C12.216 39.0674 11.3573 36.8855 10.4998 34.7031H10.4998Z" fill="#E48027"/>
<path d="M37.9348 19.7528L38.7548 20.6549L38.1534 21.3369L38.9857 21.9088L38.3843 22.6683L38.5238 23.8665L37.4946 25.0321L31.6604 19.2459L40.9604 11.9082L37.9348 19.7512V19.7528Z" fill="#81491F"/>
<path d="M37.9187 36.9482L37.9528 39.1368L34.6358 40.7333L23.4758 38.2564C23.4758 38.2564 23.3936 38.3122 23.4758 38.2564C28.1552 37.8286 37.9187 36.9482 37.9187 36.9482Z" fill="#D9C6B7"/>
<path d="M40.9597 11.9082L31.6581 19.2459L30.4677 14.5603L40.9581 11.9098L40.9597 11.9082Z" fill="#E48027"/>
<path d="M31.6604 19.2471L37.4837 25.0332L37.2404 28.0371L34.283 28.2355L31.6604 19.2471Z" fill="#E57F24"/>
<path d="M23.4763 38.2461L34.6378 40.7214L37.9548 39.1249L40.2302 38.9389L38.4973 41.095L33.7946 41.5026L23.4763 38.2461Z" fill="#C7B7AB"/>
<path d="M23.4782 38.2473L20.7037 34.704L26.2155 33.2842L23.4782 38.2473Z" fill="#D76F21"/>
<path d="M40.2323 38.9382C39.4697 39.0048 38.7195 39.0699 37.9569 39.1242L37.9213 36.9356L38.3258 36.6395L40.2788 36.1885C40.2788 36.1885 40.9376 36.6287 41.5033 36.9371C41.0538 37.6408 40.6369 38.2887 40.2323 38.9382Z" fill="#2A2626"/>
<path d="M34.2766 28.233L37.234 28.0361L36.831 29.907L35.7088 28.6298L35.467 30.4557L37.5347 33.5138L34.9927 30.6541L34.2766 28.2345V28.233Z" fill="#D66F21"/>
<path d="M20.0551 26.0131L26.7666 19.5L30.4649 28.2358L21.4873 28.5318L20.0551 26.0131Z" fill="#E47E25"/>
<path d="M23.4763 38.2467L26.2151 33.2852L37.9192 36.9478L23.4763 38.2452V38.2467Z" fill="#E47F26"/>
<path d="M21.488 28.5324L30.464 28.2363L29.8177 31.0527L28.3034 28.83L25.6002 30.3257L21.4865 28.5324H21.488Z" fill="#D66F21"/>
<path d="M29.8194 31.0527L30.4657 28.2363L31.5166 31.0527L37.9181 36.9489C37.9181 36.9489 31.667 32.4043 29.8194 31.0527Z" fill="#E47F25"/>
<path d="M29.8167 31.0508L25.6007 30.3239L28.3023 28.8281L29.8167 31.0508Z" fill="#32404E"/>
<path d="M25.6002 30.3261L26.2124 33.2851L21.4865 28.5312L25.6002 30.3246V30.3261Z" fill="#E57F25"/>
<path d="M35.4692 30.4558L35.7126 28.6299L36.8332 29.9055L35.4692 30.4558Z" fill="#38424D"/>
<path d="M36.8333 29.907L37.2363 28.0361L37.6656 30.0279L37.4796 32.6784L36.8333 29.907Z" fill="#E57F24"/>
</g>
<defs>
<clipPath id="clip0_1139_2654">
<rect width="31" height="31" fill="white" transform="translate(10.5 10.5)"/>
</clipPath>
</defs>
</svg>
