<svg width="32" height="31" viewBox="0 0 32 31" fill="none" xmlns="http://www.w3.org/2000/svg">
<g clip-path="url(#clip0_1_20)">
<path d="M16.0606 30.4125C24.4387 30.4125 31.1789 23.6723 31.1789 15.2942C31.1789 6.91611 24.4387 0.175934 16.0606 0.175934C7.68253 0.175934 0.942345 6.91611 0.942345 15.2942C0.942345 23.6723 7.68253 30.4125 16.0606 30.4125Z" fill="#388E3C"/>
<path d="M23.5766 14.5428V13.2274H21.3217V8.52966H19.5366V13.2274H15.7085L12.6042 8.52966H10.7988V13.2274H8.54385V14.5428H10.7988V16.234H8.54385V17.5493H10.7988V22.0592H12.5839V17.5493H16.5135L19.4975 22.0592H21.3217V17.5493H23.5766V16.234H21.3217V14.5428H23.5766ZM19.5366 14.5428V16.234H17.6582L16.5601 14.5428H19.5366ZM12.5839 11.5678L13.6693 13.2274H12.5839V11.5678ZM12.5839 14.5428H14.5254L15.634 16.234H12.5839V14.5428ZM18.5241 17.5493H19.5366V19.0969L18.5241 17.5493Z" fill="#F8F4F0"/>
</g>
<defs>
<clipPath id="clip0_1_20">
<rect width="30.2365" height="30.2365" fill="white" transform="translate(0.942284 0.176025)"/>
</clipPath>
</defs>
</svg>
