<svg width="59" height="59" viewBox="0 0 59 59" fill="none" xmlns="http://www.w3.org/2000/svg">
<rect x="0.49057" y="0.372986" width="57.7258" height="57.7258" rx="28.8629" fill="#FBFCFE"/>
<path d="M18.5347 36.3388C18.5458 36.2216 18.5753 36.1039 18.6216 35.9912C18.8081 35.5414 19.2456 35.2489 19.7327 35.2489H22.1379V17.2096H24.5431V35.2489H26.9484C27.4342 35.2489 27.873 35.5414 28.0594 35.9912C28.1207 36.1403 28.151 36.2964 28.151 36.4515C28.151 36.7642 28.0284 37.0721 27.7987 37.3018L24.1908 40.9097C23.7206 41.3799 22.9593 41.3799 22.4902 40.9097L18.8824 37.3018C18.6244 37.0439 18.5015 36.6903 18.5347 36.3388ZM30.561 22.1328C30.5277 21.7813 30.6506 21.4278 30.9086 21.1698L34.5164 17.5619C34.9855 17.0917 35.7468 17.0917 36.217 17.5619L39.8249 21.1698C40.0546 21.3995 40.1772 21.7074 40.1772 22.0201C40.1772 22.1752 40.147 22.3313 40.0856 22.4805C39.8992 22.9302 39.4605 23.2227 38.9746 23.2227H36.5694V41.262H34.1641V23.2227H31.7589C31.273 23.2227 30.8343 22.9302 30.6479 22.4805C30.6016 22.3677 30.572 22.25 30.561 22.1328Z" fill="#002237"/>
</svg>
