<svg width="27" height="26" viewBox="0 0 27 26" fill="none" xmlns="http://www.w3.org/2000/svg">
<g clip-path="url(#clip0_14_4384)">
<path d="M0.980469 6.7143C0.980469 3.16196 3.86021 0.282227 7.41254 0.282227H19.8809C23.4332 0.282227 26.3129 3.16196 26.3129 6.7143V19.1826C26.3129 22.735 23.4332 25.6147 19.8809 25.6147H7.41254C3.86021 25.6147 0.980469 22.735 0.980469 19.1826V6.7143Z" fill="white"/>
<path d="M13.6561 5.60168C16.2121 7.73634 19.1432 7.60468 19.9807 7.60468C19.7975 19.745 18.4017 17.3376 13.6561 20.7418C8.91055 17.3376 7.52352 19.745 7.34033 7.60468C8.16906 7.60468 11.1002 7.73634 13.6561 5.60168Z" stroke="#3375BB" stroke-width="1.73171" stroke-miterlimit="10" stroke-linecap="round" stroke-linejoin="round"/>
</g>
<defs>
<clipPath id="clip0_14_4384">
<rect width="25.3325" height="25.3325" fill="white" transform="translate(0.980469 0.282227)"/>
</clipPath>
</defs>
</svg>
