<svg width="22" height="22" viewBox="0 0 22 22" fill="none" xmlns="http://www.w3.org/2000/svg">
<path d="M11.0968 0.161905C9.82096 0.161905 8.5974 0.668723 7.69526 1.57086C6.79312 2.473 6.2863 3.69657 6.2863 4.97239C6.2863 6.24821 6.79312 7.47178 7.69526 8.37392C8.5974 9.27606 9.82096 9.78287 11.0968 9.78287C12.3726 9.78287 13.5962 9.27606 14.4983 8.37392C15.4005 7.47178 15.9073 6.24821 15.9073 4.97239C15.9073 3.69657 15.4005 2.473 14.4983 1.57086C13.5962 0.668723 12.3726 0.161905 11.0968 0.161905ZM11.0968 13.3907C7.48411 13.3907 0.273193 15.2043 0.273193 18.8025V20.6065C0.273193 21.2703 0.811968 21.8091 1.47581 21.8091H20.7178C21.3816 21.8091 21.9204 21.2703 21.9204 20.6065V18.8025C21.9204 15.2043 14.7095 13.3907 11.0968 13.3907Z" fill="#5E6E89"/>
</svg>
