<svg width="27" height="26" viewBox="0 0 27 26" fill="none" xmlns="http://www.w3.org/2000/svg">
<g clip-path="url(#clip0_14_4392)">
<path d="M0.980469 6.71292C0.980469 3.20119 3.82729 0.35437 7.33902 0.35437H20.0561C23.5678 0.35437 26.4147 3.20119 26.4147 6.71292V19.43C26.4147 22.9417 23.5678 25.7886 20.0561 25.7886H7.33902C3.82729 25.7886 0.980469 22.9417 0.980469 19.43V6.71292Z" fill="#3083FC"/>
<path d="M9.00383 10.1661C11.5962 7.68143 15.7992 7.68143 18.3916 10.1661L18.7036 10.4652C18.8332 10.5894 18.8332 10.7908 18.7036 10.9151L17.6363 11.938C17.5715 12.0001 17.4664 12.0001 17.4016 11.938L16.9724 11.5265C15.1638 9.79313 12.2316 9.79313 10.4231 11.5265L9.96335 11.9672C9.89854 12.0293 9.79347 12.0293 9.72866 11.9672L8.66139 10.9443C8.53177 10.82 8.53177 10.6186 8.66139 10.4944L9.00383 10.1661ZM20.5988 12.2817L21.5486 13.1921C21.6783 13.3164 21.6783 13.5178 21.5486 13.642L17.2656 17.7473C17.1361 17.8714 16.9259 17.8714 16.7963 17.7473H16.7962L13.7564 14.8337C13.724 14.8026 13.6715 14.8026 13.6391 14.8337L10.5993 17.7473C10.4697 17.8714 10.2595 17.8714 10.1299 17.7473L5.84671 13.642C5.71711 13.5177 5.71711 13.3163 5.84671 13.1921L6.7966 12.2817C6.92622 12.1574 7.13637 12.1574 7.26599 12.2817L10.3059 15.1953C10.3383 15.2264 10.3908 15.2264 10.4232 15.1953L13.463 12.2817C13.5926 12.1574 13.8027 12.1574 13.9323 12.2816C13.9323 12.2816 13.9323 12.2816 13.9323 12.2817L16.9722 15.1953C17.0046 15.2264 17.0572 15.2264 17.0895 15.1953L20.1294 12.2817C20.2591 12.1575 20.4692 12.1575 20.5988 12.2817Z" fill="white"/>
</g>
<defs>
<clipPath id="clip0_14_4392">
<rect width="25.4342" height="25.4342" fill="white" transform="translate(0.980469 0.354492)"/>
</clipPath>
</defs>
</svg>
