<svg width="33" height="32" viewBox="0 0 33 32" fill="none" xmlns="http://www.w3.org/2000/svg">
<path d="M8.5 4C6.30671 4 4.5 5.80671 4.5 8V25.3333C4.5 26.8067 5.69333 28 7.16667 28H25.8333C27.3067 28 28.5 26.8067 28.5 25.3333V12C28.5 10.5267 27.3067 9.33333 25.8333 9.33333H11.1667H8.5C7.74663 9.33333 7.16667 8.75337 7.16667 8C7.16667 7.24663 7.74663 6.66667 8.5 6.66667H27.1667V4H8.5ZM24.5 17.3333C25.236 17.3333 25.8333 17.9307 25.8333 18.6667C25.8333 19.4027 25.236 20 24.5 20C23.764 20 23.1667 19.4027 23.1667 18.6667C23.1667 17.9307 23.764 17.3333 24.5 17.3333Z" fill="#E4F614"/>
</svg>
